Patient4_TMGait_0pt7_01_left_48_EMG.mot
version=1
nRows=27
nColumns=33
inDegrees=no
endheader
time	1LAddLong	2LGlutMax	3LGlutMed	4LIliopsoas	5LSemiMemb	6LBicFemLong	7LRecFem	8LVastMed	9LVastLat	10LGasMed	11LTibAnt	12lTibPost	13LPeroneusLong	14LSol	15LExtDigLong	16LFlexDigLong	17RAddLong	18RGlutMax	19RGlutMed	20RIliopsoas	21RSemiMemb	22RBicFemLong	23RRecFem	24RVastMed	25RVastLat	26RGasMed	27RTibAnt	28RTibPost	29RPeroneusLong	30RSol	31RExtDigLong	32RFlexDigLong
56.152	0.002289	0.9111	-0.056915	-0.009308	-0.10742	-0.065308	0.40924	0.087738	-0.20615	-0.38193	-0.025024	0.055237	0.30701	-0.065765	0.067902	-0.52078	0.057373	-0.13809	0.19302	0.18555	-0.1265	-0.15335	0.6192	-0.27847	-0.022736	-0.001221	-0.14771	-0.011597	-0.12543	-0.073395	-0.003662	-0.012054
56.153	0.028534	0.84137	-0.009308	0.021362	-0.23132	-0.063171	0.31235	0.060272	-0.19608	-0.56366	-0.034943	0.077057	0.24887	-0.28198	0.034485	0.19959	-0.001831	-0.082397	0.30456	0.11429	-0.052948	0.097656	0.72296	-0.2829	-0.029449	0.001831	0.04425	-0.011292	-0.005646	-0.10284	0.00351	-0.006104
56.154	0.045471	0.73196	0.054779	-0.021667	-0.23575	-0.1387	0.30136	0.020599	-0.15961	-0.35873	-0.006714	0.22446	0.29633	-0.61218	-0.009766	0.37384	0.004425	-0.078125	0.58899	0.022125	0.000153	0.11566	0.72128	-0.21927	-0.037689	-0.001373	-0.79102	-0.007477	0.053711	-0.13687	-0.00885	-0.010071
56.155	0.072327	0.70221	0.065765	-0.03006	-0.14038	-0.16968	0.19089	0.002594	-0.12131	-0.12238	0.01358	-0.060883	0.39215	-0.85266	-0.031128	0.20371	-0.018005	-0.000458	0.57938	-0.023193	0.000305	0.02655	0.70145	-0.19913	-0.01297	-0.001984	-0.38238	-0.009766	0.045471	-0.11673	0.000458	-0.011902
56.156	0.070343	0.70358	0.028687	0.005646	0.09903	-0.13519	-0.032501	-0.015259	-0.1358	0.088959	0.036621	-0.02533	-0.031738	-0.79971	0.010529	0.14938	0.011597	0.007172	0.33386	-0.090179	-0.012512	0.00473	0.62393	-0.19424	-0.010986	-0.007324	0.55603	-0.006409	-0.086212	-0.1001	0.004425	-0.010376
56.157	0.06134	0.73166	0.029449	0.048981	0.13062	-0.054779	-0.27954	-0.013428	-0.13001	-0.001831	0.015411	0.093536	0.037994	-0.71701	-0.016479	-0.046539	-0.000763	0.033875	0.35843	-0.15305	-0.02243	0.036011	0.61676	-0.16464	0.005798	-0.016479	0.91553	-0.002441	-0.13107	0.023651	-0.004883	-0.013123
56.158	0.048218	0.74387	0.061951	0.009613	0.049744	0.0177	-0.51407	0.000153	-0.064087	-0.041199	-0.003204	0.10605	0.27664	-0.19424	-0.037842	-0.097656	0.00061	0.0383	0.35645	-0.21927	-0.014343	0.027313	0.6218	-0.18784	-0.003052	-0.014648	0.39734	-0.001678	-0.089111	0.034943	0.000305	-0.006256
56.159	0.024872	0.70389	0.053101	0.017395	0.010376	0.11276	-0.66452	0.003967	-0.083618	0.14191	-0.010834	0.11612	0.032196	0.159	-0.057678	-0.10666	0.032959	0.023499	0.42984	-0.26627	-0.05661	-0.005341	0.62271	-0.11871	0.013428	-0.007172	-0.098114	-0.006409	-0.066376	-0.004272	0.007629	-0.003815
56.16	0.015869	0.69473	-0.076599	0.016022	0.003815	0.13809	-0.75043	0.01236	-0.061188	0.29297	-0.012512	0.12894	-0.001831	-0.14801	-0.10803	-0.086823	0.022125	-0.016174	0.42313	-0.17807	-0.08606	0.002747	0.69611	-0.14389	0.008698	-0.001526	-0.17838	-0.011749	-0.004883	-0.005341	0.001831	0.003662
56.161	0.012054	0.75714	-0.10727	0.019684	-0.014954	-0.00061	-0.867	0.002899	-0.010681	0.28961	0.018463	0.15823	0.2298	-0.11002	-0.04837	-0.021057	-0.009155	-0.044098	0.42068	-0.10162	-0.07019	0.12268	0.63736	-0.11337	0.019226	0.001068	-0.67169	-0.003815	0.1857	-0.12894	-0.002899	-0.007172
56.162	-0.014954	0.84381	0.067139	0.022278	-0.068665	0.077209	-0.95078	0.011902	0.000916	0.15579	0.019684	-0.060577	0.91217	0.16602	0.066528	0.028992	0.004578	-0.033722	0.52612	-0.009003	-0.030365	0.18036	0.60379	-0.046387	0.033569	0.030518	-0.85678	-0.000763	0.40939	-0.3392	0.000763	0.009003
56.163	-0.017548	0.93979	0.006561	0.032349	-0.11643	0.35889	-0.95276	0	0.001984	0.097961	0.027313	0.028076	0.85785	-0.1767	0.007629	-0.003815	0.001373	-0.005798	0.56671	0.004578	-0.026245	0.19211	0.55313	-0.032349	0.011292	0.024414	-1.0123	-0.003662	0.30411	-0.42267	-0.003967	0.005951
56.164	0.007935	1.1168	-0.002136	0.024109	-0.15335	0.20493	-1.0007	-0.011292	-0.082397	-0.098267	-0.026398	0.063934	0.56824	-0.17059	-0.045013	-0.043335	0.003662	-0.046997	0.61813	-0.070496	-0.0177	0.13351	0.58792	-0.05249	0.010376	0.015259	-0.35324	-0.007019	0.097961	-0.34866	0.002136	0.001831
56.165	0.022583	1.2529	-0.009003	-0.020447	-0.112	0.012054	-0.9639	-0.014954	-0.14069	-0.20294	-0.011444	0.051117	-0.67108	0.2475	0.034943	-0.044861	0.010071	-0.088654	0.57739	0.090332	0.017853	0.14771	0.52795	-0.069885	-0.001526	0.006409	0.20004	-0.004272	-0.054169	-0.18417	-0.007324	-0.007324
56.166	0.013275	1.4615	-0.060272	-0.034027	-0.10056	0.075836	-0.88425	0.008392	-0.18539	-0.15701	0.043793	0.03418	-0.79392	0.2034	-0.071259	-0.035553	0.01709	-0.08728	0.60821	0.079651	0.012665	0.1532	0.52994	-0.061188	-0.010986	0.008392	0.23377	-0.007935	-0.042725	0.050049	-0.006714	-0.007324
56.167	0.014648	1.7053	-0.13473	0.002441	-0.081177	0.059204	-0.87631	0.036011	-0.15961	-0.11124	0.04776	0.061493	-0.64743	0.39948	0.020752	-0.033264	0.011749	-0.081177	0.62973	-0.022125	-0.027924	0.14893	0.49149	-0.1059	-0.001068	0.012817	-0.12558	-0.002441	0.095062	0.19684	0.002594	-0.002136
56.168	-0.00351	1.9399	-0.11154	-0.012207	0.037689	0.02121	-0.81711	0.037994	-0.13534	-0.08255	0.039825	0.054474	-0.71991	0.44876	0.044556	-0.023651	0.006409	-0.092773	0.70847	-0.093536	-0.046692	0.1152	0.47226	-0.06073	0.006866	0.003357	0.05127	-0.001526	0.054779	0.27298	-0.000458	-0.005646
56.169	-0.003815	2.072	-0.014191	-0.011444	0.031128	-0.015564	-0.7373	0.018005	-0.080261	-0.05188	-0.043182	0.043945	-0.15732	0.37552	-0.072937	-0.028534	0.025787	-0.1358	0.59341	0.033264	0.01236	0.065765	0.39581	-0.051727	0	-0.000916	0.075531	-0.008392	-0.054169	0.35065	0.005646	-0.014343
56.17	0.015564	1.9862	-0.086365	-0.014038	-0.065613	-0.018005	-0.64743	-0.005188	0.039673	-0.064087	-0.060883	0.030975	-0.27588	0.48782	0.020752	-0.022583	0.046539	-0.20142	0.64957	0.080109	0.00412	0.050659	0.3865	0.061188	0.003815	0.005341	0.001526	-0.00412	0.005493	0.33081	-0.009918	-0.010529
56.171	0.032043	1.8405	0.035095	0.001984	-0.10223	0.045929	-0.63278	-0.026703	0.19714	-0.039063	-0.008698	0.032196	-0.095673	0.34515	-0.018616	-0.018768	0.036163	-0.22736	0.32761	0.24719	-0.000153	0.080109	0.37994	-0.074463	0.007629	0.007019	-0.20966	-0.00412	0.066376	0.25024	0.001526	-0.005798
56.172	0.036774	1.665	0.098114	0.010986	-0.049591	0.15503	-0.62943	0.012817	0.2887	-0.072327	-0.010223	0.020599	0.49515	0.1355	-0.038757	-0.0177	0.030823	-0.23804	0.19913	0.29617	0.030365	0.13031	0.37201	-0.059052	-0.005951	0.005493	-0.3447	-0.003967	0.010071	0.15335	-0.008392	-0.006409
56.173	0.027161	1.5169	0.26855	0.002136	0.016632	0.19257	-0.57205	0.066376	0.18494	-0.082092	-0.014496	0.01236	-0.13397	0.12116	-0.073242	-0.003357	-0.031738	-0.32227	0.033875	0.21271	-0.002441	0.17105	0.3447	-0.05188	0.001221	-0.004883	-0.25238	-0.00412	-0.098419	0.081482	0.007629	-0.006104
56.174	0.018005	1.3638	0.4599	-0.003967	0.024719	0.20477	-0.55466	0.066833	0.18326	-0.030212	0.003967	0.000153	-0.37079	0.077515	-0.1004	0.002441	-0.08667	-0.34668	0.005798	0.12512	-0.016327	0.23331	0.33707	-0.061798	-0.005646	0.003204	-0.17059	-0.001373	-0.10757	0.014191	0.005646	-0.013733
56.175	0.010376	1.268	0.45761	0.025635	-0.007324	0.28809	-0.49133	0.025635	0.21713	0.012665	0.015106	-0.016937	-0.2977	0.005493	-0.073853	-0.003357	-0.16556	-0.36652	0.016479	0.13458	-0.029144	0.22919	0.37048	-0.05661	-0.00412	0	-0.10132	-0.001526	-0.11643	-0.020599	0.005798	-0.008545
56.176	0.009613	1.158	0.28366	0.01358	-0.042267	0.29114	-0.47531	-0.013428	0.19898	-0.00885	-0.00061	-0.022583	0.019073	0.052338	-0.010223	0.00412	-0.1593	-0.39261	0.006409	0.10681	-0.03952	0.18845	0.35446	-0.040741	-0.009766	-0.002136	-0.042419	-0.000916	-0.13336	-0.025482	-0.007324	-0.003967
56.177	-0.002136	1.006	0.090332	0.00946	-0.12558	0.2092	-0.47348	-0.029602	0.13977	-0.017395	-0.009766	-0.037384	0.49194	0.028687	0.054474	0.009308	-0.084839	-0.43167	0.056915	0.043335	-0.029297	0.21027	0.39993	-0.04425	-0.035095	0.003204	-0.011749	-0.004578	-0.06485	-0.030212	-0.004883	-0.002136
56.178	0.005035	0.92499	-0.030212	0.001678	-0.14542	0.14893	-0.47913	-0.033112	0.13855	-0.010834	-0.006256	-0.0383	0.83695	0.1149	0.071716	0.007172	-0.032806	-0.4982	0.17075	0.041656	-0.009308	0.21271	0.41626	-0.050812	-0.035248	-0.003052	0.019073	-0.004425	0.024109	0.017853	-0.004883	0.002136
